<?xml version="1.0" encoding="UTF-8" standalone="no"?>
<svg
   xmlns:dc="http://purl.org/dc/elements/1.1/"
   xmlns:cc="http://creativecommons.org/ns#"
   xmlns:rdf="http://www.w3.org/1999/02/22-rdf-syntax-ns#"
   xmlns:svg="http://www.w3.org/2000/svg"
   xmlns="http://www.w3.org/2000/svg"
   xmlns:sodipodi="http://sodipodi.sourceforge.net/DTD/sodipodi-0.dtd"
   xmlns:inkscape="http://www.inkscape.org/namespaces/inkscape"
   version="1.1"
   id="Layer_1"
   x="0px"
   y="0px"
   width="100px"
   height="100px"
   viewBox="0 0 100 100"
   enable-background="new 0 0 100 100"
   xml:space="preserve"
   inkscape:version="0.48.4 r9939"
   sodipodi:docname="lamp.svg"><metadata
     id="metadata27"><rdf:RDF><cc:Work
         rdf:about=""><dc:format>image/svg+xml</dc:format><dc:type
           rdf:resource="http://purl.org/dc/dcmitype/StillImage" /></cc:Work></rdf:RDF></metadata><defs
     id="defs25" /><sodipodi:namedview
     pagecolor="#ffffff"
     bordercolor="#666666"
     borderopacity="1"
     objecttolerance="10"
     gridtolerance="10"
     guidetolerance="10"
     inkscape:pageopacity="0"
     inkscape:pageshadow="2"
     inkscape:window-width="1280"
     inkscape:window-height="753"
     id="namedview23"
     showgrid="false"
     inkscape:zoom="6.675088"
     inkscape:cx="40.215866"
     inkscape:cy="55.217685"
     inkscape:window-x="0"
     inkscape:window-y="25"
     inkscape:window-maximized="1"
     inkscape:current-layer="Layer_1" /><rect
     x="46"
     y="67.445"
     width="5"
     height="15"
     id="rect3" /><rect
     x="30.99"
     y="41.645"
     transform="matrix(0.5113 -0.8594 0.8594 0.5113 -34.1107 55.61)"
     width="1.7"
     height="32.304"
     id="rect5" /><rect
     x="32.448"
     y="39.193"
     transform="matrix(0.5109 -0.8597 0.8597 0.5109 -31.2908 55.6961)"
     width="1.699"
     height="32.304"
     id="rect7" /><rect
     x="39.661"
     y="8.487"
     transform="matrix(-0.4274 -0.9041 0.9041 -0.4274 25.1309 89.345)"
     width="2.397"
     height="56.453"
     id="rect9" /><ellipse
     cx="48.791"
     cy="65.87"
     rx="4.427"
     ry="4.204"
     id="ellipse11" /><ellipse
     cx="17.846"
     cy="47.707"
     rx="4.428"
     ry="4.204"
     id="ellipse13" /><g
     id="g15"
     transform="matrix(0.9063078,0.42261825,-0.42261825,0.9063078,16.318208,-25.128071)"><path
       d="M 87.339,22.797 C 79.88,28.731 78.74,29.637 72.422,34.662 68.234,29.396 68.203,22.502 72.321,19.226 76.44,15.951 83.15,17.534 87.339,22.797 z"
       id="path17"
       inkscape:connector-curvature="0" /><path
       d="M 79.446,17.886 C 74.067,21.924 73.887,22.06 69.224,25.56 64.301,19.001 62.651,12.036 65.472,9.917 c 2.823,-2.119 9.052,1.41 13.974,7.969 z"
       id="path19"
       inkscape:connector-curvature="0" /></g><polygon
     points="62.244,90.445 35.336,90.445 42.063,83.445 55.519,83.445 "
     id="polygon21" /></svg>